<?xml version="1.0" standalone="no"?>
<!DOCTYPE svg PUBLIC "-//W3C//DTD SVG 20010904//EN"
 "http://www.w3.org/TR/2001/REC-SVG-20010904/DTD/svg10.dtd">
<svg version="1.0" xmlns="http://www.w3.org/2000/svg"
 width="86.000000pt" height="117.000000pt" viewBox="0 0 86.000000 117.000000"
 preserveAspectRatio="xMidYMid meet">
<metadata>
Created by potrace 1.10, written by Peter Selinger 2001-2011
</metadata>
<g transform="translate(0.000000,117.000000) scale(0.100000,-0.100000)"
fill="#FFFFFF" stroke="none">
<path d="M250 1025 c0 -15 61 -137 66 -133 7 7 -48 138 -58 138 -5 0 -8 -2 -8
-5z"/>
<path d="M531 966 c-17 -38 -29 -71 -27 -73 8 -8 68 118 63 130 -3 7 -19 -19
-36 -57z"/>
<path d="M30 861 c0 -4 32 -25 70 -45 39 -21 70 -33 70 -29 0 11 -140 85 -140
74z"/>
<path d="M390 861 c-83 -26 -139 -86 -160 -171 -15 -64 5 -139 55 -197 20 -24
35 -52 35 -67 0 -14 8 -30 18 -35 16 -10 16 -10 0 -11 -17 0 -25 -20 -13 -32
3 -2 44 1 92 9 141 21 135 18 127 59 -6 31 -2 40 24 67 47 51 65 95 66 163 0
139 -127 250 -244 215z m113 -26 c67 -28 117 -113 117 -199 0 -44 -32 -115
-66 -146 -13 -13 -24 -31 -24 -40 0 -12 -18 -19 -83 -28 -108 -16 -107 -16
-107 9 0 12 -14 37 -31 57 -18 20 -40 54 -50 76 -73 161 86 337 244 271z m23
-444 c-3 -4 -29 -11 -58 -15 -29 -3 -71 -9 -93 -12 -22 -4 -37 -3 -33 1 5 5
41 14 80 20 94 16 110 17 104 6z"/>
<path d="M740 843 c-79 -46 -92 -55 -87 -59 6 -6 135 64 143 77 9 15 -9 9 -56
-18z"/>
<path d="M415 343 c-82 -14 -106 -26 -89 -42 10 -10 204 16 218 29 13 13 -3
30 -27 29 -12 -1 -58 -8 -102 -16z m115 -2 c0 -9 -178 -37 -186 -28 -3 3 16 9
43 12 26 4 66 11 88 15 56 11 55 11 55 1z"/>
<path d="M431 294 c-47 -8 -86 -16 -89 -18 -2 -3 6 -13 17 -23 12 -9 21 -25
21 -35 0 -15 9 -18 60 -18 56 0 60 1 60 23 0 13 9 32 20 42 22 20 27 46 8 44
-7 -1 -51 -7 -97 -15z m89 -13 c0 -35 -107 -55 -145 -27 -18 13 -15 15 35 24
74 13 110 14 110 3z m-40 -63 c0 -4 -18 -8 -39 -8 -22 0 -42 4 -45 8 -3 5 15
9 39 9 25 0 45 -4 45 -9z"/>
</g>
</svg>
